<?xml version="1.0" encoding="UTF-8" standalone="no"?>
<svg width="630px" height="102px" viewBox="0 0 630 102" version="1.1" xmlns="http://www.w3.org/2000/svg" xmlns:xlink="http://www.w3.org/1999/xlink" xmlns:sketch="http://www.bohemiancoding.com/sketch/ns">
    <!-- Generator: Sketch 3.4.4 (17249) - http://www.bohemiancoding.com/sketch -->
    <title>logo_prosper_color_gray</title>
    <desc>Created with Sketch.</desc>
    <defs></defs>
    <g id="Page-1" stroke="none" stroke-width="1" fill="none" fill-rule="evenodd" sketch:type="MSPage">
        <g id="logo_prosper_color_gray" sketch:type="MSLayerGroup">
            <g id="XMLID_36_" sketch:type="MSShapeGroup">
                <path d="M302.6,70.9 L327.3,31.1 C331.5,33.2 335.1,35.9 338,39 L354.3,12.7 C351.4,9.6 347.8,6.9 343.6,4.8 C324.1,-4.9 299.2,2 287.9,20.2 C276.5,38.5 283.1,61.2 302.6,70.9 L302.6,70.9 Z" id="XMLID_40_" fill="#FE7800"></path>
                <path d="M327.3,31.1 L302.6,70.9 C298.4,68.8 294.8,66.1 291.9,63 L275.6,89.3 C278.5,92.4 282.1,95.1 286.3,97.2 C305.8,106.9 330.7,100 342,81.8 C353.4,63.5 346.7,40.8 327.3,31.1 L327.3,31.1 Z" id="XMLID_268_" fill="#E10F77"></path>
                <g id="XMLID_42_" transform="translate(183.000000, 0.000000)" fill="#828282">
                    <path d="M4.9,18.3 C9.7,9.6 20.7,0.4 36.7,0.4 C52.7,0.4 63.6,9.6 68.5,18.3 C71.8,24.2 72.9,27.1 72.9,51 C72.9,74.9 71.8,77.8 68.5,83.7 C63.7,92.4 52.7,101.6 36.7,101.6 C20.7,101.6 9.8,92.4 4.9,83.7 C1.6,77.8 0.5,74.9 0.5,51 C0.5,27.1 1.6,24.2 4.9,18.3 L4.9,18.3 Z M21,79.2 C24.1,83.1 29.4,86.5 36.7,86.5 C44,86.5 49.2,83.1 52.4,79.2 C56.4,74.2 57.5,71.4 57.5,51 C57.5,30.6 56.4,27.8 52.4,22.8 C49.3,18.9 44,15.5 36.7,15.5 C29.4,15.5 24.2,18.9 21,22.8 C17,27.8 15.9,30.6 15.9,51 C15.9,71.4 17,74.2 21,79.2 L21,79.2 Z" id="XMLID_43_"></path>
                </g>
                <g id="XMLID_44_" transform="translate(91.000000, 1.000000)" fill="#828282">
                    <path d="M0.5,0.3 L40.1,0.3 C48.7,0.3 55.4,2.3 60.8,6.9 C66.5,11.6 70.9,19.2 70.9,28.1 C70.9,41 63.5,51.4 51.2,55.6 L74.7,99.7 L56.5,99.7 L35.5,57.2 L15.8,57.2 L15.8,99.7 L0.4,99.7 L0.4,0.3 L0.5,0.3 Z M15.9,43.9 L39.1,43.9 C50.6,43.9 56.4,36.5 56.4,28.1 C56.4,22.9 54.4,19 51.3,16.8 C48.4,14.7 45.3,13.7 40,13.7 L15.9,13.7 L15.9,43.9 L15.9,43.9 Z" id="XMLID_45_"></path>
                </g>
                <g id="XMLID_46_" transform="translate(0.000000, 1.000000)" fill="#828282">
                    <path d="M0.8,0.3 L37.6,0.3 C45.6,0.3 52.6,1.3 60.4,7.3 C66.5,11.9 71.4,20.3 71.4,31.1 C71.4,45.2 60.4,61 39.6,61 L16.2,61 L16.2,99.8 L0.8,99.8 L0.8,0.3 L0.8,0.3 Z M16.2,46.6 L39,46.6 C50.4,46.6 56,38.4 56,30.5 C56,23.8 53.3,19.7 49.4,17.2 C46,15 42.8,14.4 38.4,14.4 L16.2,14.4 L16.2,46.6 L16.2,46.6 Z" id="XMLID_47_"></path>
                </g>
                <g id="XMLID_48_" transform="translate(376.000000, 1.000000)" fill="#828282">
                    <path d="M0.1,0.2 L36.9,0.2 C44.9,0.2 51.9,1.2 59.7,7.2 C65.8,11.8 70.7,20.2 70.7,31 C70.7,45.1 59.7,60.9 38.9,60.9 L15.5,60.9 L15.5,99.7 L0.1,99.7 L0.1,0.2 L0.1,0.2 Z M15.5,46.6 L38.3,46.6 C49.7,46.6 55.3,38.4 55.3,30.5 C55.3,23.8 52.6,19.7 48.7,17.2 C45.3,15 42.1,14.4 37.7,14.4 L15.5,14.4 L15.5,46.6 L15.5,46.6 Z" id="XMLID_49_"></path>
                    <path d="M89.7,0.2 L154.6,0.2 L154.6,14.5 L105.1,14.5 L105.1,42.9 L147.3,42.9 L147.3,56.3 L105.1,56.3 L105.1,85.5 L154.6,85.5 L154.6,99.8 L89.7,99.8 L89.7,0.2 L89.7,0.2 Z" id="XMLID_50_"></path>
                    <path d="M178.9,0.2 L218.5,0.2 C227.1,0.2 233.8,2.2 239.2,6.8 C244.9,11.5 249.3,19.1 249.3,28 C249.3,40.9 241.9,51.3 229.6,55.5 L253.1,99.6 L234.9,99.6 L213.9,57.1 L194.2,57.1 L194.2,99.6 L178.8,99.6 L178.8,0.2 L178.9,0.2 Z M194.3,43.8 L217.5,43.8 C229,43.8 234.7,36.4 234.7,28 C234.7,22.8 232.7,18.9 229.6,16.7 C226.7,14.6 223.6,13.6 218.3,13.6 L194.2,13.6 L194.2,43.8 L194.3,43.8 Z" id="XMLID_51_"></path>
                </g>
            </g>
        </g>
    </g>
</svg>